<?xml version="1.0" standalone="no"?>
<!DOCTYPE svg PUBLIC "-//W3C//DTD SVG 20010904//EN"
 "http://www.w3.org/TR/2001/REC-SVG-20010904/DTD/svg10.dtd">
<svg version="1.0" xmlns="http://www.w3.org/2000/svg"
 width="1258.000000pt" height="1258.000000pt" viewBox="0 0 1258.000000 1258.000000"
 preserveAspectRatio="xMidYMid meet">
<metadata>
Created by potrace 1.14, written by Peter Selinger 2001-2017
</metadata>
<g transform="translate(0.000000,1258.000000) scale(0.100000,-0.100000)"
fill="#000000" stroke="none">
<path d="M9250 10620 c-416 -89 -747 -377 -874 -760 -40 -124 -54 -221 -51
-370 3 -146 6 -167 36 -278 52 -197 138 -341 307 -517 42 -43 71 -76 65 -72
-9 6 -11 3 -7 -7 3 -9 10 -16 15 -16 5 0 9 -5 9 -10 0 -11 10 -25 47 -64 12
-13 19 -27 16 -30 -4 -3 -1 -6 5 -6 7 0 12 -7 12 -15 0 -8 3 -14 8 -14 21 4
31 -3 26 -16 -4 -10 0 -15 15 -15 15 0 19 -4 14 -17 -3 -10 -3 -15 1 -11 4 3
20 -7 35 -23 15 -16 31 -26 34 -22 4 3 7 -1 7 -11 0 -9 5 -14 10 -11 6 3 10
-1 10 -9 0 -9 6 -15 13 -14 6 2 11 -3 9 -10 -2 -9 2 -11 10 -6 19 12 39 14 32
3 -3 -5 -10 -7 -15 -4 -5 4 -9 1 -9 -4 0 -6 5 -11 11 -11 6 0 25 -11 43 -25
18 -14 36 -22 39 -18 4 3 7 2 7 -4 0 -12 141 -83 165 -83 8 0 15 -5 15 -12 0
-6 3 -8 6 -5 4 3 15 2 26 -4 14 -7 23 -7 34 2 12 10 13 9 7 -6 -5 -14 -3 -17
10 -12 10 4 17 1 17 -6 0 -8 -31 -16 -92 -24 -231 -28 -468 -145 -637 -314
-151 -151 -276 -382 -317 -584 -4 -22 -10 -958 -11 -2080 -4 -2231 -6 -2133
53 -2308 42 -124 145 -306 213 -377 87 -90 140 -152 146 -169 3 -12 14 -21 23
-21 15 0 15 -2 2 -10 -11 -7 -11 -10 -2 -10 7 0 10 -4 7 -10 -3 -5 -2 -10 4
-10 5 0 12 6 15 13 3 6 3 1 0 -12 -5 -19 -3 -23 9 -18 11 4 14 2 10 -9 -3 -7
1 -14 8 -14 7 0 10 -3 6 -6 -7 -7 17 -34 30 -34 4 0 14 -14 22 -31 7 -16 15
-28 18 -25 3 3 16 -8 30 -25 14 -16 29 -27 34 -23 5 3 9 -2 9 -10 0 -8 9 -18
20 -21 12 -4 17 -11 13 -18 -4 -7 2 -5 12 3 10 8 16 10 12 4 -8 -13 45 -57 81
-68 12 -4 22 -12 22 -17 0 -6 5 -7 10 -4 6 3 10 1 10 -5 0 -6 5 -8 10 -5 6 3
10 1 10 -6 0 -6 8 -9 19 -6 14 3 18 1 14 -10 -4 -9 0 -14 8 -13 25 4 40 0 35
-8 -5 -9 91 -38 113 -33 8 1 10 -2 5 -11 -4 -7 -4 -10 1 -6 4 4 15 2 23 -5 13
-10 15 -9 9 8 -7 18 -6 19 6 3 8 -10 17 -15 20 -11 4 3 7 1 7 -6 0 -7 5 -9 10
-6 6 3 10 0 10 -7 0 -9 3 -9 10 2 5 8 10 10 10 3 0 -6 9 -9 20 -6 11 3 34 0
50 -7 25 -10 33 -10 47 1 9 8 14 9 10 3 -4 -7 2 -14 13 -17 11 -3 20 0 20 6 0
8 4 7 9 -2 7 -10 10 -10 13 -1 3 10 9 10 27 0 19 -10 25 -10 32 1 7 11 9 11 9
-1 0 -13 1 -13 10 0 9 13 10 13 10 0 0 -9 3 -11 8 -5 4 6 18 10 32 9 14 -1 33
2 43 7 11 7 17 6 17 -1 0 -6 5 -8 12 -4 10 6 41 13 75 16 7 1 10 5 7 10 -3 4
-1 8 5 8 5 0 12 -6 14 -12 4 -10 6 -10 6 0 1 6 10 12 22 12 12 0 18 4 13 11
-5 8 -2 9 12 1 13 -7 24 -6 40 5 13 8 29 11 35 7 7 -4 10 -3 7 2 -3 5 14 18
38 30 24 11 41 16 38 10 -3 -6 4 0 16 14 12 14 19 19 15 12 -4 -7 16 0 44 15
28 15 51 32 51 36 0 5 -5 5 -12 1 -7 -4 -8 -3 -4 4 4 6 13 9 21 5 8 -3 15 0
15 7 0 6 5 8 10 5 6 -3 14 4 19 17 6 14 10 17 11 8 1 -9 5 -5 11 9 6 15 15 21
24 17 8 -3 15 -1 15 5 0 15 26 39 34 32 3 -4 6 -1 6 5 0 6 14 25 30 42 17 17
28 35 25 39 -2 5 3 8 12 7 10 0 18 4 18 10 0 6 7 18 15 27 32 35 39 45 33 51
-4 3 1 6 10 6 11 0 15 7 12 20 -2 11 0 18 6 15 5 -4 9 -2 9 4 0 6 9 19 21 30
12 11 18 24 14 30 -3 6 -1 11 5 11 6 0 9 4 5 9 -3 5 0 13 6 16 5 4 8 13 5 21
-3 8 -1 13 3 11 5 -1 10 3 10 8 1 6 9 20 16 32 8 12 17 30 19 40 4 23 15 53
27 75 7 14 5 18 -8 19 -15 0 -15 2 -3 7 15 7 20 18 24 60 2 12 6 25 9 29 12
11 7 24 -5 17 -10 -6 -10 -5 -1 8 7 8 10 18 6 21 -3 4 -1 7 6 7 7 0 9 5 6 11
-10 15 -13 69 -4 63 4 -2 10 0 14 6 3 5 1 10 -4 10 -13 0 -11 50 1 67 6 7 4
14 -3 19 -8 5 -9 3 -4 -7 8 -12 6 -12 -8 0 -18 15 -23 26 -7 16 6 -3 11 0 11
7 1 7 2 20 3 28 1 8 -5 24 -14 34 -9 11 -10 16 -2 12 6 -4 13 -2 13 3 1 6 2
17 3 24 1 6 -2 17 -6 24 -6 7 -4 14 3 19 8 5 10 3 4 -7 -5 -8 -4 -11 0 -6 5 4
9 16 10 27 1 16 -1 18 -13 7 -13 -10 -14 -9 -4 10 8 15 9 24 2 28 -8 5 -7 11
1 21 9 11 9 21 0 40 -6 14 -7 23 -2 20 5 -3 12 1 15 10 3 8 2 13 -3 10 -5 -3
-12 1 -15 10 -3 9 -2 12 5 9 6 -4 7 3 3 21 -6 21 -4 25 7 19 11 -7 12 -6 3 6
-7 8 -11 28 -10 44 2 17 -2 33 -8 37 -7 5 -3 8 9 8 16 0 17 2 6 9 -13 8 -13
12 0 27 8 10 9 15 3 11 -7 -4 -15 0 -18 9 -3 8 -2 12 4 9 13 -8 13 1 0 25 -9
16 -8 19 7 13 15 -5 16 -3 6 8 -16 16 -17 33 -1 23 7 -5 8 -3 2 7 -12 19 -14
72 -2 86 5 7 5 13 0 17 -5 3 -9 17 -9 31 0 14 4 22 10 18 6 -4 7 -1 1 8 -12
20 -14 78 -3 85 5 3 6 11 2 17 -12 19 -11 167 2 167 6 0 5 3 -2 8 -7 4 -11 16
-9 27 2 11 -2 23 -8 27 -7 5 -3 8 9 8 16 0 17 2 6 9 -13 8 -13 12 0 27 8 10 9
15 3 11 -7 -4 -15 0 -18 9 -3 8 -2 12 4 9 13 -8 13 1 0 25 -9 16 -8 19 7 13
15 -5 16 -3 6 8 -16 16 -17 33 -1 23 7 -5 8 -3 2 7 -12 20 -14 78 -3 85 6 4 6
10 0 18 -5 6 -8 21 -7 31 2 11 -1 25 -6 32 -6 7 -5 14 3 19 8 5 10 3 4 -7 -5
-8 -4 -11 0 -6 5 4 9 16 10 27 1 16 -1 18 -13 7 -13 -10 -14 -9 -4 10 8 15 9
24 2 28 -8 5 -7 11 1 21 9 11 9 21 0 40 -6 14 -7 23 -2 20 5 -3 12 1 15 10 3
8 2 13 -3 10 -5 -3 -12 1 -15 10 -3 9 -2 12 5 9 6 -4 7 3 3 21 -6 21 -4 25 7
19 11 -7 12 -6 3 6 -7 8 -11 28 -10 44 2 17 -2 33 -8 37 -7 5 -3 8 9 8 16 0
17 2 6 9 -13 8 -13 12 0 27 8 10 9 15 3 11 -7 -4 -15 0 -18 9 -3 8 -2 12 4 9
13 -8 13 1 0 25 -9 16 -8 19 7 13 15 -5 16 -3 6 8 -16 16 -17 33 -1 23 7 -5 8
-3 2 7 -12 19 -14 72 -2 86 5 7 5 13 0 17 -5 3 -9 17 -9 31 0 14 4 22 10 18 6
-4 7 -1 1 8 -12 20 -14 78 -3 85 5 3 6 11 2 17 -12 19 -11 167 2 167 6 0 5 3
-2 8 -7 4 -11 16 -9 27 2 11 -2 23 -8 27 -7 5 -3 8 9 8 16 0 17 2 6 9 -13 8
-13 12 0 27 8 10 9 15 3 11 -7 -4 -15 0 -18 9 -3 8 -2 12 4 9 13 -8 13 1 0 25
-9 16 -8 19 7 13 15 -5 16 -3 6 8 -16 16 -17 33 -1 23 7 -5 8 -3 2 7 -12 20
-14 78 -3 85 6 4 6 10 0 18 -5 6 -8 21 -7 31 2 11 -1 25 -6 32 -6 7 -5 14 3
19 8 5 10 3 4 -7 -5 -8 -4 -11 0 -6 5 4 9 16 10 27 1 16 -1 18 -13 7 -13 -10
-14 -9 -4 10 8 15 9 24 2 28 -8 5 -7 11 1 21 9 11 9 21 0 40 -6 14 -7 23 -2
20 5 -3 12 1 15 10 3 8 2 13 -3 10 -5 -3 -12 1 -15 10 -3 9 -2 12 5 9 6 -4 7
3 3 21 -6 21 -4 25 7 19 11 -7 12 -6 3 6 -7 8 -11 28 -10 44 2 17 -2 33 -8 37
-7 5 -3 8 9 8 16 0 17 2 6 9 -13 8 -13 12 0 27 8 10 9 15 3 11 -7 -4 -15 0
-18 9 -3 8 -2 12 4 9 13 -8 13 1 0 25 -9 16 -8 19 7 13 15 -5 16 -3 6 8 -16
16 -17 33 -1 23 7 -5 8 -3 2 7 -12 19 -14 72 -2 86 5 7 5 13 0 17 -5 3 -9 17
-9 31 0 14 4 22 10 18 6 -4 7 -1 1 8 -12 20 -14 78 -3 85 5 3 6 11 2 17 -12
19 -11 167 2 167 6 0 5 3 -2 8 -7 4 -11 16 -9 27 2 11 -2 23 -8 27 -7 5 -3 8
9 8 16 0 17 2 6 9 -13 8 -13 12 0 27 8 10 9 15 3 11 -7 -4 -15 0 -18 9 -3 8
-2 12 4 9 13 -8 13 1 0 25 -9 16 -8 19 7 13 15 -5 16 -3 6 8 -7 7 -13 17 -13
22 0 4 6 5 13 1 9 -6 9 -4 1 7 -6 8 -10 42 -10 77 1 34 -3 62 -8 62 -5 0 -2 8
5 17 8 9 9 14 3 10 -7 -4 -15 0 -18 9 -9 24 -7 31 5 14 9 -13 10 -12 5 3 -3 9
-9 24 -13 34 -5 12 -3 14 8 9 8 -4 5 0 -5 8 -13 10 -15 16 -7 16 11 0 11 3 1
15 -6 8 -9 19 -5 25 3 5 1 10 -4 10 -6 0 -11 11 -11 25 0 14 -4 25 -10 25 -5
0 -10 5 -10 11 0 5 4 8 9 4 5 -3 3 8 -5 25 -9 17 -19 28 -24 25 -5 -3 -12 -1
-15 5 -4 6 -2 9 3 8 6 -2 10 2 10 7 0 6 -3 9 -8 8 -4 -1 -6 9 -4 22 1 17 -3
25 -14 25 -8 0 -12 3 -9 7 4 3 1 13 -6 21 -10 13 -9 15 3 8 9 -4 8 -1 -2 7
-10 8 -18 19 -18 26 0 6 -5 11 -11 11 -5 0 -7 5 -4 10 3 6 1 10 -5 10 -6 0 -9
4 -5 9 3 5 -5 17 -17 25 -12 9 -19 16 -15 16 4 0 -1 10 -12 22 -11 11 -18 25
-16 29 3 4 -4 10 -15 14 -11 3 -20 11 -20 16 0 6 -4 7 -10 4 -6 -3 -7 1 -4 9
4 11 0 16 -12 16 -9 0 -14 3 -11 6 3 4 -7 19 -23 34 -16 15 -56 68 -89 117
-135 202 -342 361 -564 434 -37 12 -67 26 -67 32 0 6 3 7 6 4 4 -3 15 -2 26 4
13 7 23 7 32 0 9 -7 16 -7 24 1 9 9 12 9 12 -2 0 -9 5 -8 16 6 8 10 13 13 9 7
-4 -8 0 -13 10 -13 9 0 14 4 11 8 -2 4 8 7 22 6 15 -1 33 3 40 9 6 5 12 6 12
2 0 -4 7 -2 15 5 11 9 15 10 15 1 0 -8 6 -7 16 3 8 9 25 16 38 16 12 0 27 5
34 12 7 7 12 8 12 2 0 -5 4 -3 9 4 4 7 14 14 22 15 8 2 20 6 27 11 7 4 16 5
19 2 3 -3 13 2 22 12 9 9 23 18 31 20 8 2 16 7 18 12 2 5 10 6 19 3 11 -4 14
-2 9 5 -5 8 0 12 13 12 12 0 21 6 21 14 0 9 7 13 20 11 11 -2 19 1 17 8 -1 7
5 12 13 12 8 0 24 9 35 21 11 11 32 29 48 39 15 9 27 25 27 34 0 13 2 13 9 2
6 -9 11 -10 15 -2 4 6 4 11 0 11 -4 0 8 11 27 26 19 14 33 32 31 41 -2 11 1
14 12 10 11 -5 16 -1 16 13 0 13 5 18 15 14 10 -4 15 0 15 16 0 12 4 18 10 15
6 -4 10 -3 9 2 -4 21 2 33 17 33 8 0 12 5 9 10 -4 6 4 19 17 30 13 11 19 19
14 20 -6 0 -1 7 10 16 10 8 14 13 8 10 -6 -3 -11 1 -11 8 0 8 6 12 14 9 9 -4
11 0 6 13 -5 13 -3 15 8 9 12 -8 12 -6 0 9 -8 9 -10 16 -5 15 19 -3 34 1 34
12 0 5 -6 7 -12 4 -7 -4 -4 1 6 9 18 15 15 21 -9 16 -5 -1 -6 2 -2 7 5 4 14 8
20 8 7 0 13 10 15 23 2 12 8 22 14 22 5 0 8 6 5 14 -3 8 2 17 11 21 15 5 14 9
-8 25 -22 17 -23 19 -4 14 13 -3 21 -1 22 8 2 25 8 47 15 54 10 11 8 26 -2 19
-5 -3 -3 8 5 25 9 16 13 34 10 39 -4 5 -1 13 5 17 8 4 7 9 -2 15 -12 7 -12 9
0 9 11 0 11 3 0 17 -11 13 -11 15 -1 9 10 -6 13 -1 11 20 -2 16 -7 35 -13 42
-6 9 -4 11 9 6 15 -6 16 -4 6 14 -9 17 -9 22 1 22 9 0 9 3 -2 10 -11 7 -11 10
-2 10 9 0 10 5 3 18 -6 11 -6 24 0 34 6 11 5 19 -2 24 -8 5 -9 3 -4 -7 7 -12
5 -12 -6 -1 -12 11 -12 14 1 22 13 9 13 11 0 20 -9 5 -10 10 -3 10 6 0 10 8 8
18 -1 9 -7 16 -12 15 -5 -1 -10 4 -10 12 0 8 4 12 9 9 8 -5 7 13 -4 56 -5 21
-22 39 -32 32 -5 -3 -6 0 -2 7 4 6 12 9 17 6 14 -9 11 12 -5 28 -11 10 -12 17
-4 25 8 8 7 13 -5 17 -9 4 -13 13 -10 22 4 11 3 14 -6 9 -8 -5 -12 -3 -10 5 3
29 -1 40 -13 33 -10 -6 -10 -4 0 8 14 18 0 34 -19 22 -8 -5 -8 -1 0 14 14 26
14 35 1 27 -5 -3 -10 -1 -10 6 0 6 -8 18 -17 26 -10 8 -13 12 -7 9 14 -7 -21
65 -39 79 -6 6 -18 22 -26 37 -8 15 -18 25 -23 22 -4 -3 -8 5 -8 16 0 15 -5
20 -14 17 -10 -4 -12 1 -9 16 4 18 3 19 -6 7 -8 -11 -11 -11 -11 -2 0 7 -14
27 -31 45 -17 18 -28 26 -24 18 6 -9 4 -12 -4 -7 -6 4 -9 11 -6 16 3 5 1 12
-5 15 -6 4 -37 46 -68 93 -146 224 -399 408 -664 481 -116 32 -125 33 -283 37
-117 2 -169 -1 -235 -16z m1375 -888 c-3 -3 -11 0 -18 7 -9 10 -8 11 6 5 10
-3 15 -9 12 -12z m35 -26 c0 -2 -8 -10 -17 -17 -16 -13 -17 -12 -4 4 13 16 21
21 21 13z m24 -112 c3 -8 2 -12 -4 -9 -6 3 -10 10 -10 16 0 14 7 11 14 -7z
m-39 -82 c-3 -3 -11 0 -18 7 -9 10 -8 11 6 5 10 -3 15 -9 12 -12z m36 -5 c-10
-9 -11 -8 -5 6 3 10 9 15 12 12 3 -3 0 -11 -7 -18z m89 -21 c0 -3 -4 -8 -10
-11 -5 -3 -10 -1 -10 4 0 6 5 11 10 11 6 0 10 -2 10 -4z m-83 -81 c0 -8 -4
-12 -9 -9 -5 3 -6 10 -3 15 9 13 12 11 12 -6z m77 -131 c3 -8 2 -12 -4 -9 -6
3 -10 10 -10 16 0 14 7 11 14 -7z m-159 -43 c3 -5 2 -12 -3 -15 -5 -3 -9 1 -9
9 0 17 3 19 12 6z m156 -44 c-10 -9 -11 -8 -5 6 3 10 9 15 12 12 3 -3 0 -11
-7 -18z m-116 -36 c3 -5 2 -12 -3 -15 -5 -3 -9 1 -9 9 0 17 3 19 12 6z m65 -7
c0 -8 -19 -13 -24 -6 -3 5 1 9 9 9 8 0 15 -2 15 -3z m-120 -44 c0 -5 -5 -10
-11 -10 -5 0 -7 5 -4 10 3 6 8 10 11 10 2 0 4 -4 4 -10z m114 2 c3 -5 -1 -9
-9 -9 -8 0 -12 4 -9 9 3 4 7 8 9 8 2 0 6 -4 9 -8z m-134 -76 c0 -2 -7 -7 -16
-10 -8 -3 -12 -2 -9 4 6 10 25 14 25 6z m190 -41 c-7 -8 -17 -15 -23 -15 -6 0
-2 7 9 15 25 19 30 19 14 0z m-65 -5 c3 -6 -1 -7 -9 -4 -18 7 -21 14 -7 14 6
0 13 -4 16 -10z m-180 -40 c-3 -5 -12 -10 -18 -10 -7 0 -6 4 3 10 19 12 23 12
15 0z m85 -40 c8 -5 11 -10 5 -10 -5 0 -17 5 -25 10 -8 5 -10 10 -5 10 6 0 17
-5 25 -10z m-140 -40 c-8 -5 -19 -10 -25 -10 -5 0 -3 5 5 10 8 5 20 10 25 10
6 0 3 -5 -5 -10z m228 -25 c-3 -3 -9 2 -12 12 -6 14 -5 15 5 6 7 -7 10 -15 7
-18z m82 11 c0 -3 -4 -8 -10 -11 -5 -3 -10 -1 -10 4 0 6 5 11 10 11 6 0 10 -2
10 -4z m-245 -46 c3 -5 1 -10 -4 -10 -6 0 -11 5 -11 10 0 6 2 10 4 10 3 0 8
-4 11 -10z m105 -16 c0 -8 -19 -13 -24 -6 -3 5 1 9 9 9 8 0 15 -2 15 -3z
m-145 -43 c3 -5 2 -12 -3 -15 -5 -3 -9 1 -9 9 0 17 3 19 12 6z m105 -41 c0 -5
-5 -10 -11 -10 -5 0 -7 5 -4 10 3 6 8 10 11 10 2 0 4 -4 4 -10z m70 6 c0 -2
-8 -10 -17 -17 -16 -13 -17 -12 -4 4 13 16 21 21 21 13z m-173 -41 c0 -8 -4
-12 -9 -9 -5 3 -6 10 -3 15 9 13 12 11 12 -6z m-46 -12 c13 -17 13 -17 -6 -3
-11 8 -22 16 -24 17 -2 2 0 3 6 3 6 0 17 -8 24 -17z m104 -41 c-3 -3 -11 0
-18 7 -9 10 -8 11 6 5 10 -3 15 -9 12 -12z m-255 -6 c0 -3 -4 -8 -10 -11 -5
-3 -10 -1 -10 4 0 6 5 11 10 11 6 0 10 -2 10 -4z m-175 -66 c-3 -5 -12 -10
-18 -10 -7 0 -6 4 3 10 19 12 23 12 15 0z m270 -8 c-3 -3 -11 0 -18 7 -9 10
-8 11 6 5 10 -3 15 -9 12 -12z m179 -18 c3 -8 2 -12 -4 -9 -6 3 -10 10 -10 16
0 14 7 11 14 -7z m-480 -60 c3 -8 2 -12 -4 -9 -6 3 -10 10 -10 16 0 14 7 11
14 -7z m317 -7 c-10 -9 -11 -8 -5 6 3 10 9 15 12 12 3 -3 0 -11 -7 -18z
m-1356 -46 c3 -5 2 -12 -3 -15 -5 -3 -9 1 -9 9 0 17 3 19 12 6z m42 -6 c0 -8
-4 -12 -9 -9 -5 3 -6 10 -3 15 9 13 12 11 12 -6z m1058 -15 c3 -5 1 -10 -4
-10 -6 0 -11 5 -11 10 0 6 2 10 4 10 3 0 8 -4 11 -10z m-382 -15 c-3 -9 -8
-14 -10 -11 -3 3 -2 9 2 15 9 16 15 13 8 -4z m287 1 c0 -3 -4 -8 -10 -11 -5
-3 -10 -1 -10 4 0 6 5 11 10 11 6 0 10 -2 10 -4z m-1006 -24 c3 -5 -1 -9 -9
-9 -8 0 -12 4 -9 9 3 4 7 8 9 8 2 0 6 -4 9 -8z m403 -7 c0 -8 -4 -12 -9 -9 -4
3 -8 9 -8 15 0 5 4 9 8 9 5 0 9 -7 9 -15z m458 5 c3 -5 1 -10 -4 -10 -6 0 -11
5 -11 10 0 6 2 10 4 10 3 0 8 -4 11 -10z m-104 -33 c-10 -9 -11 -8 -5 6 3 10
9 15 12 12 3 -3 0 -11 -7 -18z m400 0 c-10 -9 -11 -8 -5 6 3 10 9 15 12 12 3
-3 0 -11 -7 -18z m-431 9 c0 -2 -8 -10 -17 -17 -16 -13 -17 -12 -4 4 13 16 21
21 21 13z m-420 -10 c0 -2 -7 -7 -16 -10 -8 -3 -12 -2 -9 4 6 10 25 14 25 6z
m210 -2 c0 -8 -19 -13 -24 -6 -3 5 1 9 9 9 8 0 15 -2 15 -3z m425 -12 c-3 -3
-11 0 -18 7 -9 10 -8 11 6 5 10 -3 15 -9 12 -12z m-895 -12 c0 -5 -2 -10 -4
-10 -3 0 -8 5 -11 10 -3 6 -1 10 4 10 6 0 11 -4 11 -10z m194 -6 c3 -8 2 -12
-4 -9 -6 3 -10 10 -10 16 0 14 7 11 14 -7z m180 -23 c-2 -3 -12 3 -22 13 -16
17 -16 18 5 5 12 -7 20 -15 17 -18z m166 9 c0 -5 -2 -10 -4 -10 -3 0 -8 5 -11
10 -3 6 -1 10 4 10 6 0 11 -4 11 -10z m-340 -40 c0 -5 -4 -10 -10 -10 -5 0
-10 5 -10 10 0 6 5 10 10 10 6 0 10 -4 10 -10z m615 -8 c-3 -3 -11 0 -18 7 -9
10 -8 11 6 5 10 -3 15 -9 12 -12z m-342 -7 c-3 -9 -8 -14 -10 -11 -3 3 -2 9 2
15 9 16 15 13 8 -4z m165 -10 c-3 -3 -9 2 -12 12 -6 14 -5 15 5 6 7 -7 10 -15
7 -18z m322 -9 c0 -2 -7 -7 -16 -10 -8 -3 -12 -2 -9 4 6 10 25 14 25 6z m37
-11 c0 -8 -4 -12 -9 -9 -5 3 -6 10 -3 15 9 13 12 11 12 -6z m-583 -44 c-2 -3
-12 3 -22 13 -16 17 -16 18 5 5 12 -7 20 -15 17 -18z m166 15 c0 -3 -4 -8 -10
-11 -5 -3 -10 -1 -10 4 0 6 5 11 10 11 6 0 10 -2 10 -4z m260 -20 c0 -3 -4 -8
-10 -11 -5 -3 -10 -1 -10 4 0 6 5 11 10 11 6 0 10 -2 10 -4z m-480 -25 c0 -4
-6 -8 -13 -8 -8 0 -14 6 -14 13 0 7 6 10 14 7 7 -3 13 -8 13 -12z m1145 -1001
c3 -6 -1 -7 -9 -4 -18 7 -21 14 -7 14 6 0 13 -4 16 -10z m88 -95 c-3 -9 -8
-14 -10 -11 -3 3 -2 9 2 15 9 16 15 13 8 -4z m-88 -65 c-3 -5 -12 -10 -18 -10
-7 0 -6 4 3 10 19 12 23 12 15 0z m35 -74 c0 -2 -7 -7 -16 -10 -8 -3 -12 -2
-9 4 6 10 25 14 25 6z m134 -72 c3 -8 2 -12 -4 -9 -6 3 -10 10 -10 16 0 14 7
11 14 -7z m-76 -39 c-3 -3 -9 2 -12 12 -6 14 -5 15 5 6 7 -7 10 -15 7 -18z
m52 -9 c0 -2 -8 -10 -17 -17 -16 -13 -17 -12 -4 4 13 16 21 21 21 13z m-110
-42 c0 -8 -19 -13 -24 -6 -3 5 1 9 9 9 8 0 15 -2 15 -3z m125 -44 c-3 -5 -12
-10 -18 -10 -7 0 -6 4 3 10 19 12 23 12 15 0z m-147 -65 c-3 -3 -9 2 -12 12
-6 14 -5 15 5 6 7 -7 10 -15 7 -18z m67 -55 c-3 -5 -12 -10 -18 -10 -7 0 -6 4
3 10 19 12 23 12 15 0z m56 -37 c13 -16 12 -17 -3 -4 -10 7 -18 15 -18 17 0 8
8 3 21 -13z m-36 -83 c3 -6 -1 -7 -9 -4 -18 7 -21 14 -7 14 6 0 13 -4 16 -10z
m69 -38 c3 -5 -1 -9 -9 -9 -8 0 -12 4 -9 9 3 4 7 8 9 8 2 0 6 -4 9 -8z m-164
-42 c8 -5 11 -10 5 -10 -5 0 -17 5 -25 10 -8 5 -10 10 -5 10 6 0 17 -5 25 -10z
m88 -65 c-3 -3 -9 2 -12 12 -6 14 -5 15 5 6 7 -7 10 -15 7 -18z m-58 -51 c0
-8 -19 -13 -24 -6 -3 5 1 9 9 9 8 0 15 -2 15 -3z m97 -37 c0 -8 -6 -14 -14
-14 -9 0 -10 4 -2 14 6 7 12 13 14 13 1 0 2 -6 2 -13z m-112 -7 c-3 -5 -12
-10 -18 -10 -7 0 -6 4 3 10 19 12 23 12 15 0z m73 -65 c-3 -3 -9 2 -12 12 -6
14 -5 15 5 6 7 -7 10 -15 7 -18z m-58 -51 c0 -8 -19 -13 -24 -6 -3 5 1 9 9 9
8 0 15 -2 15 -3z m125 -44 c-3 -5 -12 -10 -18 -10 -7 0 -6 4 3 10 19 12 23 12
15 0z m-147 -65 c-3 -3 -9 2 -12 12 -6 14 -5 15 5 6 7 -7 10 -15 7 -18z m67
-55 c-3 -5 -12 -10 -18 -10 -7 0 -6 4 3 10 19 12 23 12 15 0z m-65 -114 c0 -2
-7 -7 -16 -10 -8 -3 -12 -2 -9 4 6 10 25 14 25 6z m145 -6 c-3 -5 -12 -10 -18
-10 -7 0 -6 4 3 10 19 12 23 12 15 0z m-110 -100 c3 -5 1 -10 -4 -10 -6 0 -11
5 -11 10 0 6 2 10 4 10 3 0 8 -4 11 -10z m-1 -58 c3 -5 -1 -9 -9 -9 -8 0 -12
4 -9 9 3 4 7 8 9 8 2 0 6 -4 9 -8z m44 -67 c-3 -3 -9 2 -12 12 -6 14 -5 15 5
6 7 -7 10 -15 7 -18z m0 -80 c-3 -3 -9 2 -12 12 -6 14 -5 15 5 6 7 -7 10 -15
7 -18z m-58 -51 c0 -8 -19 -13 -24 -6 -3 5 1 9 9 9 8 0 15 -2 15 -3z m125 -44
c-3 -5 -12 -10 -18 -10 -7 0 -6 4 3 10 19 12 23 12 15 0z m-147 -65 c-3 -3 -9
2 -12 12 -6 14 -5 15 5 6 7 -7 10 -15 7 -18z m67 -55 c-3 -5 -12 -10 -18 -10
-7 0 -6 4 3 10 19 12 23 12 15 0z m56 -37 c13 -16 12 -17 -3 -4 -10 7 -18 15
-18 17 0 8 8 3 21 -13z m-36 -83 c3 -6 -1 -7 -9 -4 -18 7 -21 14 -7 14 6 0 13
-4 16 -10z m69 -38 c3 -5 -1 -9 -9 -9 -8 0 -12 4 -9 9 3 4 7 8 9 8 2 0 6 -4 9
-8z m-164 -42 c8 -5 11 -10 5 -10 -5 0 -17 5 -25 10 -8 5 -10 10 -5 10 6 0 17
-5 25 -10z m88 -65 c-3 -3 -9 2 -12 12 -6 14 -5 15 5 6 7 -7 10 -15 7 -18z
m-58 -51 c0 -8 -19 -13 -24 -6 -3 5 1 9 9 9 8 0 15 -2 15 -3z m97 -37 c0 -8
-6 -14 -14 -14 -9 0 -10 4 -2 14 6 7 12 13 14 13 1 0 2 -6 2 -13z m-112 -7
c-3 -5 -12 -10 -18 -10 -7 0 -6 4 3 10 19 12 23 12 15 0z m73 -65 c-3 -3 -9 2
-12 12 -6 14 -5 15 5 6 7 -7 10 -15 7 -18z m-58 -51 c0 -8 -19 -13 -24 -6 -3
5 1 9 9 9 8 0 15 -2 15 -3z m125 -44 c-3 -5 -12 -10 -18 -10 -7 0 -6 4 3 10
19 12 23 12 15 0z m-147 -65 c-3 -3 -9 2 -12 12 -6 14 -5 15 5 6 7 -7 10 -15
7 -18z m67 -55 c-3 -5 -12 -10 -18 -10 -7 0 -6 4 3 10 19 12 23 12 15 0z m-65
-114 c0 -2 -7 -7 -16 -10 -8 -3 -12 -2 -9 4 6 10 25 14 25 6z m145 -6 c-3 -5
-12 -10 -18 -10 -7 0 -6 4 3 10 19 12 23 12 15 0z m-110 -100 c3 -5 1 -10 -4
-10 -6 0 -11 5 -11 10 0 6 2 10 4 10 3 0 8 -4 11 -10z m-1 -58 c3 -5 -1 -9 -9
-9 -8 0 -12 4 -9 9 3 4 7 8 9 8 2 0 6 -4 9 -8z m44 -67 c-3 -3 -9 2 -12 12 -6
14 -5 15 5 6 7 -7 10 -15 7 -18z m0 -80 c-3 -3 -9 2 -12 12 -6 14 -5 15 5 6 7
-7 10 -15 7 -18z m-58 -51 c0 -8 -19 -13 -24 -6 -3 5 1 9 9 9 8 0 15 -2 15 -3z
m125 -44 c-3 -5 -12 -10 -18 -10 -7 0 -6 4 3 10 19 12 23 12 15 0z m-147 -65
c-3 -3 -9 2 -12 12 -6 14 -5 15 5 6 7 -7 10 -15 7 -18z m67 -55 c-3 -5 -12
-10 -18 -10 -7 0 -6 4 3 10 19 12 23 12 15 0z m56 -37 c13 -16 12 -17 -3 -4
-10 7 -18 15 -18 17 0 8 8 3 21 -13z m-36 -83 c3 -6 -1 -7 -9 -4 -18 7 -21 14
-7 14 6 0 13 -4 16 -10z m69 -38 c3 -5 -1 -9 -9 -9 -8 0 -12 4 -9 9 3 4 7 8 9
8 2 0 6 -4 9 -8z m-164 -42 c8 -5 11 -10 5 -10 -5 0 -17 5 -25 10 -8 5 -10 10
-5 10 6 0 17 -5 25 -10z m88 -65 c-3 -3 -9 2 -12 12 -6 14 -5 15 5 6 7 -7 10
-15 7 -18z m-58 -51 c0 -8 -19 -13 -24 -6 -3 5 1 9 9 9 8 0 15 -2 15 -3z m97
-37 c0 -8 -6 -14 -14 -14 -9 0 -10 4 -2 14 6 7 12 13 14 13 1 0 2 -6 2 -13z
m-112 -7 c-3 -5 -12 -10 -18 -10 -7 0 -6 4 3 10 19 12 23 12 15 0z m73 -65
c-3 -3 -9 2 -12 12 -6 14 -5 15 5 6 7 -7 10 -15 7 -18z m-58 -51 c0 -8 -19
-13 -24 -6 -3 5 1 9 9 9 8 0 15 -2 15 -3z m125 -44 c-3 -5 -12 -10 -18 -10 -7
0 -6 4 3 10 19 12 23 12 15 0z m-147 -65 c-3 -3 -9 2 -12 12 -6 14 -5 15 5 6
7 -7 10 -15 7 -18z m67 -55 c-3 -5 -12 -10 -18 -10 -7 0 -6 4 3 10 19 12 23
12 15 0z m-65 -114 c0 -2 -7 -7 -16 -10 -8 -3 -12 -2 -9 4 6 10 25 14 25 6z
m145 -6 c-3 -5 -12 -10 -18 -10 -7 0 -6 4 3 10 19 12 23 12 15 0z m-110 -100
c3 -5 1 -10 -4 -10 -6 0 -11 5 -11 10 0 6 2 10 4 10 3 0 8 -4 11 -10z m-1 -58
c3 -5 -1 -9 -9 -9 -8 0 -12 4 -9 9 3 4 7 8 9 8 2 0 6 -4 9 -8z m44 -67 c-3 -3
-9 2 -12 12 -6 14 -5 15 5 6 7 -7 10 -15 7 -18z m-64 -53 c3 -5 -1 -9 -9 -9
-8 0 -12 4 -9 9 3 4 7 8 9 8 2 0 6 -4 9 -8z m139 -17 c-3 -9 -8 -14 -10 -11
-3 3 -2 9 2 15 9 16 15 13 8 -4z m-82 -58 c-10 -9 -11 -8 -5 6 3 10 9 15 12
12 3 -3 0 -11 -7 -18z m-81 -42 c-7 -8 -17 -15 -23 -15 -6 0 -2 7 9 15 25 19
30 19 14 0z m100 -85 c-8 -5 -19 -10 -25 -10 -5 0 -3 5 5 10 8 5 20 10 25 10
6 0 3 -5 -5 -10z m-165 -160 c-3 -5 -12 -10 -18 -10 -7 0 -6 4 3 10 19 12 23
12 15 0z m-65 -114 c0 -3 -4 -8 -10 -11 -5 -3 -10 -1 -10 4 0 6 5 11 10 11 6
0 10 -2 10 -4z m54 -72 c3 -8 2 -12 -4 -9 -6 3 -10 10 -10 16 0 14 7 11 14 -7z
m-74 -34 c0 -5 -2 -10 -4 -10 -3 0 -8 5 -11 10 -3 6 -1 10 4 10 6 0 11 -4 11
-10z m200 -40 c0 -5 -5 -10 -11 -10 -5 0 -7 5 -4 10 3 6 8 10 11 10 2 0 4 -4
4 -10z m-215 -20 c-3 -5 -12 -10 -18 -10 -7 0 -6 4 3 10 19 12 23 12 15 0z
m92 -15 c0 -8 -4 -12 -9 -9 -5 3 -6 10 -3 15 9 13 12 11 12 -6z m-200 -20 c0
-8 -4 -12 -9 -9 -5 3 -6 10 -3 15 9 13 12 11 12 -6z m-57 -5 c0 -5 -2 -10 -4
-10 -3 0 -8 5 -11 10 -3 6 -1 10 4 10 6 0 11 -4 11 -10z m115 -48 c-3 -3 -11
0 -18 7 -9 10 -8 11 6 5 10 -3 15 -9 12 -12z m85 14 c0 -2 -7 -7 -16 -10 -8
-3 -12 -2 -9 4 6 10 25 14 25 6z m45 -46 c-3 -5 -12 -10 -18 -10 -7 0 -6 4 3
10 19 12 23 12 15 0z m-450 -48 c-3 -3 -11 0 -18 7 -9 10 -8 11 6 5 10 -3 15
-9 12 -12z m85 14 c0 -2 -7 -7 -16 -10 -8 -3 -12 -2 -9 4 6 10 25 14 25 6z
m205 -6 c3 -6 -1 -7 -9 -4 -18 7 -21 14 -7 14 6 0 13 -4 16 -10z m-150 -60 c3
-5 1 -10 -4 -10 -6 0 -11 5 -11 10 0 6 2 10 4 10 3 0 8 -4 11 -10z m82 -5 c0
-8 -4 -12 -9 -9 -5 3 -6 10 -3 15 9 13 12 11 12 -6z m-1238 -39 c-3 -3 -11 5
-18 17 -13 21 -12 21 5 5 10 -10 16 -20 13 -22z m1360 0 c-3 -3 -11 5 -18 17
-13 21 -12 21 5 5 10 -10 16 -20 13 -22z m-564 15 c3 -5 2 -12 -3 -15 -5 -3
-9 1 -9 9 0 17 3 19 12 6z m42 -6 c0 -8 -4 -12 -9 -9 -5 3 -6 10 -3 15 9 13
12 11 12 -6z m203 1 c0 -3 -4 -8 -10 -11 -5 -3 -10 -1 -10 4 0 6 5 11 10 11 6
0 10 -2 10 -4z m-935 -26 c3 -6 -1 -7 -9 -4 -18 7 -21 14 -7 14 6 0 13 -4 16
-10z m530 -19 c3 -5 2 -12 -3 -15 -5 -3 -9 1 -9 9 0 17 3 19 12 6z m42 -6 c0
-8 -4 -12 -9 -9 -5 3 -6 10 -3 15 9 13 12 11 12 -6z m109 -13 c-17 -16 -18
-16 -5 5 7 12 15 20 18 17 3 -2 -3 -12 -13 -22z m174 -7 c0 -5 -5 -3 -10 5 -5
8 -10 20 -10 25 0 6 5 3 10 -5 5 -8 10 -19 10 -25z m-905 5 c3 -5 1 -10 -4
-10 -6 0 -11 5 -11 10 0 6 2 10 4 10 3 0 8 -4 11 -10z m1089 2 c3 -5 -1 -9 -9
-9 -8 0 -12 4 -9 9 3 4 7 8 9 8 2 0 6 -4 9 -8z m111 -2 c3 -5 1 -10 -4 -10 -6
0 -11 5 -11 10 0 6 2 10 4 10 3 0 8 -4 11 -10z m-1062 -15 c-3 -9 -8 -14 -10
-11 -3 3 -2 9 2 15 9 16 15 13 8 -4z m205 -10 c-3 -3 -9 2 -12 12 -6 14 -5 15
5 6 7 -7 10 -15 7 -18z m237 -15 c3 -5 1 -10 -4 -10 -6 0 -11 5 -11 10 0 6 2
10 4 10 3 0 8 -4 11 -10z m169 2 c3 -5 -1 -9 -9 -9 -8 0 -12 4 -9 9 3 4 7 8 9
8 2 0 6 -4 9 -8z m71 -10 c-3 -3 -11 0 -18 7 -9 10 -8 11 6 5 10 -3 15 -9 12
-12z m-521 -18 c3 -8 2 -12 -4 -9 -6 3 -10 10 -10 16 0 14 7 11 14 -7z m720 0
c3 -8 2 -12 -4 -9 -6 3 -10 10 -10 16 0 14 7 11 14 -7z m-519 -14 c3 -5 1 -10
-4 -10 -6 0 -11 5 -11 10 0 6 2 10 4 10 3 0 8 -4 11 -10z m-277 -25 c-3 -3 -9
2 -12 12 -6 14 -5 15 5 6 7 -7 10 -15 7 -18z m475 10 c-3 -9 -8 -14 -10 -11
-3 3 -2 9 2 15 9 16 15 13 8 -4z m127 -6 c0 -5 -4 -9 -8 -9 -5 0 -9 7 -9 15 0
8 4 12 9 9 4 -3 8 -9 8 -15z m-200 1 c0 -5 -2 -10 -4 -10 -3 0 -8 5 -11 10 -3
6 -1 10 4 10 6 0 11 -4 11 -10z m-365 -40 c3 -5 1 -10 -4 -10 -6 0 -11 5 -11
10 0 6 2 10 4 10 3 0 8 -4 11 -10z m276 -13 c-10 -9 -11 -8 -5 6 3 10 9 15 12
12 3 -3 0 -11 -7 -18z m244 14 c3 -5 2 -12 -3 -15 -5 -3 -9 1 -9 9 0 17 3 19
12 6z m46 -18 c13 -16 12 -17 -3 -4 -10 7 -18 15 -18 17 0 8 8 3 21 -13z m120
-36 c-10 -9 -11 -8 -5 6 3 10 9 15 12 12 3 -3 0 -11 -7 -18z m-541 -1 c0 -2
-7 -7 -16 -10 -8 -3 -12 -2 -9 4 6 10 25 14 25 6z"/>
<path d="M2918 9755 c-1 -2 -32 -4 -68 -6 -89 -3 -228 -42 -324 -90 -232 -116
-480 -381 -587 -626 -26 -60 -77 -202 -83 -234 -2 -13 -11 -55 -20 -94 -29
-136 -39 -372 -23 -528 33 -314 181 -641 386 -852 35 -36 60 -65 57 -65 -4 0
-1 -6 6 -14 7 -8 17 -11 22 -8 5 3 6 0 3 -5 -4 -6 0 -16 9 -23 8 -7 13 -19 10
-27 -3 -7 -1 -13 5 -13 16 0 39 -27 31 -35 -4 -5 2 -5 13 -1 15 5 17 4 8 -5
-8 -8 -1 -22 33 -55 24 -25 44 -50 45 -57 0 -6 4 -3 9 8 l9 20 1 -20 c2 -11 2
-23 1 -27 0 -5 4 -8 9 -8 12 0 33 -15 58 -43 22 -24 58 -44 47 -26 -6 8 -4 10
4 5 7 -5 10 -15 6 -24 -3 -9 -3 -13 1 -9 4 3 19 -2 34 -13 15 -11 31 -16 35
-12 5 4 6 0 3 -8 -4 -11 1 -16 15 -17 11 -1 24 -8 28 -15 8 -12 13 -4 10 15 0
4 4 7 9 7 6 0 10 -6 9 -12 -3 -26 1 -39 11 -33 6 3 10 1 10 -5 0 -6 5 -8 10
-5 6 3 10 1 10 -5 0 -6 5 -8 10 -5 6 3 10 1 10 -4 0 -6 7 -11 16 -11 8 0 12
-4 9 -10 -3 -5 3 -10 14 -10 10 0 21 -4 23 -9 2 -5 10 -11 18 -13 20 -4 39
-22 33 -31 -2 -4 -1 -7 4 -6 19 3 34 -2 29 -9 -5 -8 1 -10 43 -14 12 -2 17 -8
13 -17 -3 -8 -1 -12 4 -8 6 3 16 -3 24 -13 8 -10 17 -17 21 -15 3 3 17 -4 29
-15 12 -11 26 -17 30 -15 4 3 11 -2 14 -11 3 -8 10 -12 16 -9 5 3 10 1 10 -4
0 -6 7 -11 15 -11 8 0 15 -4 15 -10 0 -5 10 -10 23 -10 18 0 19 -2 7 -11 -12
-9 -11 -10 8 -6 12 3 20 1 16 -4 -3 -5 0 -9 6 -9 6 0 8 -4 5 -10 -4 -6 1 -7
11 -3 10 4 15 2 11 -3 -3 -6 4 -11 16 -11 12 -1 27 -9 33 -18 7 -9 16 -17 21
-18 4 -1 7 -5 6 -9 -2 -4 6 -5 17 -3 13 3 20 -2 20 -12 0 -8 6 -13 13 -10 15
5 39 -18 29 -28 -4 -5 3 -5 16 -2 15 3 22 1 22 -10 0 -8 5 -11 10 -8 6 3 10 2
10 -3 0 -5 18 -17 40 -28 22 -10 40 -22 40 -26 0 -5 7 -8 15 -8 8 0 15 -5 15
-11 0 -6 7 -9 15 -5 9 3 15 0 15 -8 0 -13 41 -36 65 -36 8 0 15 -7 15 -16 0
-8 5 -12 10 -9 6 3 10 1 10 -4 0 -6 5 -11 11 -11 6 0 17 -7 25 -15 8 -8 21
-12 30 -8 8 3 14 2 12 -3 -2 -5 0 -9 4 -9 4 0 14 -9 22 -20 9 -11 16 -15 16
-10 0 6 4 4 9 -3 4 -7 17 -14 29 -15 16 -1 18 -4 10 -14 -8 -11 -7 -12 7 -7
13 5 16 4 11 -4 -5 -8 -1 -10 10 -5 13 5 15 3 9 -8 -5 -8 -1 -7 12 4 16 14 20
14 20 2 0 -8 -4 -12 -9 -9 -4 3 -8 0 -8 -5 0 -6 7 -11 15 -11 8 0 15 -5 15
-11 0 -8 5 -7 16 1 12 11 15 11 12 0 -2 -8 7 -19 20 -25 12 -5 22 -12 22 -15
0 -3 -33 -26 -73 -52 -87 -56 -437 -282 -751 -485 -356 -230 -416 -269 -486
-313 -36 -22 -105 -67 -155 -100 -49 -32 -127 -82 -172 -110 -186 -116 -329
-274 -428 -475 -113 -228 -159 -435 -159 -710 0 -212 22 -359 81 -535 72 -218
191 -406 368 -582 15 -16 24 -28 19 -28 -4 0 1 -7 12 -16 10 -8 13 -13 7 -9
-9 4 -11 1 -7 -9 3 -9 10 -13 15 -10 9 5 13 -11 9 -31 -1 -5 2 -7 6 -3 8 8 41
-32 37 -44 -2 -4 5 -4 14 -1 11 4 14 3 9 -5 -4 -7 -2 -12 4 -12 6 0 8 -5 5
-10 -3 -6 1 -10 10 -10 9 0 14 -4 11 -8 -3 -5 4 -14 14 -22 10 -8 16 -18 13
-24 -4 -6 2 -4 12 4 11 9 16 10 11 3 -4 -8 -2 -13 4 -13 6 0 8 -5 5 -10 -3 -6
1 -13 9 -16 9 -3 16 -12 16 -20 0 -8 9 -14 21 -14 11 0 17 -5 14 -10 -3 -5 -1
-10 6 -10 6 0 19 -8 28 -18 35 -37 50 -45 65 -33 10 8 16 9 21 1 4 -6 1 -9 -6
-8 -6 2 -14 -3 -16 -9 -3 -7 2 -13 11 -13 9 0 16 -4 16 -10 0 -5 7 -10 16 -10
9 0 12 -5 8 -12 -5 -9 -2 -8 10 1 15 13 18 12 23 -8 3 -13 11 -20 19 -17 8 3
14 -1 14 -11 0 -13 2 -14 17 -2 9 8 14 9 10 3 -4 -7 3 -14 18 -18 14 -4 24
-10 21 -15 -3 -4 5 -7 17 -6 12 1 28 -5 36 -12 8 -8 22 -12 32 -10 11 3 19 1
19 -5 0 -6 11 -8 25 -6 15 3 22 1 18 -5 -4 -6 2 -8 15 -5 12 4 22 1 22 -4 0
-6 8 -4 17 3 11 9 14 10 9 2 -5 -9 0 -13 16 -13 13 0 34 0 47 -1 13 0 34 -5
45 -11 20 -10 20 -10 6 7 -14 17 -14 18 10 5 14 -7 26 -14 26 -14 1 -1 12 8
25 19 15 12 19 14 11 4 -11 -15 -9 -17 13 -15 14 0 25 6 25 11 0 6 5 3 10 -5
7 -11 10 -11 10 -2 0 7 5 10 10 7 6 -4 17 -1 25 5 12 10 15 10 15 0 0 -9 7 -7
22 6 12 10 18 13 14 6 -4 -6 -2 -12 3 -12 6 0 11 4 11 10 0 5 7 7 15 4 8 -4
15 -1 15 6 0 9 4 9 17 -1 14 -12 16 -12 11 2 -5 12 -1 15 18 11 18 -3 24 0 24
14 0 16 2 17 10 4 7 -10 12 -12 18 -4 4 6 15 10 25 8 9 -1 15 1 13 5 -3 4 15
16 40 26 24 10 44 22 44 27 0 5 4 7 9 4 5 -3 21 7 37 22 15 15 24 21 20 15 -5
-9 -2 -11 9 -7 9 4 13 9 11 12 -9 8 45 33 57 25 6 -3 7 -1 3 5 -4 7 -3 12 2
12 5 0 14 10 21 22 6 13 9 15 7 6 -6 -21 20 -14 28 8 3 8 13 14 21 14 9 0 13
4 10 10 -4 6 1 7 11 3 13 -5 16 -2 11 9 -4 12 -1 14 14 11 10 -3 19 -1 19 5 0
6 9 14 20 17 11 4 18 11 15 16 -3 5 1 6 9 3 11 -4 16 0 16 12 0 15 2 16 9 5 7
-11 11 -10 19 5 6 11 14 19 19 19 4 0 7 5 5 10 -2 6 0 7 4 3 8 -9 64 22 64 35
0 4 5 5 10 2 6 -3 10 -1 10 6 0 7 3 9 6 6 4 -3 16 5 27 19 10 14 25 23 32 20
8 -3 19 2 25 9 7 8 16 13 20 10 4 -3 11 2 14 11 3 8 10 12 16 9 6 -3 13 1 16
9 3 9 12 16 20 16 8 0 14 4 14 8 0 12 56 42 65 34 5 -4 6 0 2 9 -4 12 -1 16
12 12 11 -3 21 2 24 11 6 16 54 41 70 37 5 -1 6 3 2 9 -5 9 1 12 22 9 3 0 10
6 15 15 5 9 16 16 24 16 8 0 13 4 10 9 -3 5 8 11 24 14 21 5 28 11 24 22 -5
11 -2 14 9 9 9 -3 23 3 34 15 9 12 23 21 30 21 7 0 13 4 13 9 0 5 12 12 26 15
18 5 24 11 20 23 -5 13 -4 14 8 4 9 -8 16 -9 21 -2 3 6 21 18 40 27 19 9 32
20 29 25 -5 8 18 14 39 10 5 -1 6 3 2 9 -6 9 8 15 29 11 5 -1 6 5 3 13 -4 9
-3 15 1 15 21 -3 32 2 26 13 -5 8 -2 9 9 5 10 -3 17 -2 17 3 0 5 7 7 15 3 10
-3 15 0 13 8 -2 8 3 13 10 11 6 -1 12 5 12 13 0 8 5 15 11 15 5 0 7 -6 4 -12
-4 -7 4 -2 17 12 13 14 30 25 38 25 8 0 15 7 14 15 -1 10 8 17 23 18 13 1 33
11 45 22 12 11 28 18 36 15 7 -2 10 0 7 5 -3 6 1 10 10 10 11 0 15 5 12 14 -4
10 0 12 14 9 11 -3 19 -2 18 3 -4 21 2 28 11 14 8 -13 10 -13 10 2 0 9 5 20
12 24 7 4 8 3 4 -4 -11 -18 43 13 60 34 9 11 13 12 9 4 -4 -8 3 -4 15 10 12
14 19 18 15 10 -4 -8 2 -5 13 8 14 15 22 18 25 10 3 -8 6 -6 6 5 1 10 6 15 11
12 6 -3 10 -1 10 5 0 6 4 9 9 6 5 -3 12 1 15 10 3 8 10 12 16 9 5 -3 10 -1 10
5 0 6 5 8 10 5 6 -3 10 -1 10 5 0 6 5 8 10 5 6 -4 9 -1 8 7 -2 7 3 12 10 11 6
-2 12 2 12 7 0 6 7 10 15 10 8 0 15 4 15 9 0 5 15 15 34 22 19 7 34 17 33 23
-1 5 3 11 8 11 6 1 20 5 33 9 18 6 21 11 12 21 -9 11 -7 12 9 8 16 -4 21 0 22
13 0 11 3 14 5 7 3 -7 12 -9 20 -6 7 3 11 9 8 14 -3 5 0 9 7 9 6 0 18 8 26 18
14 16 14 16 8 -3 -4 -16 0 -14 19 8 13 16 27 28 30 28 18 -2 19 0 6 10 -12 8
-10 9 8 4 16 -5 22 -2 22 9 0 9 5 16 11 16 5 0 7 -6 4 -12 -4 -7 2 -4 12 8 10
11 25 18 32 16 9 -3 11 0 6 8 -6 10 -4 12 8 7 11 -4 17 -1 17 8 0 9 6 12 15 9
18 -7 20 12 3 20 -9 4 -8 5 2 5 31 -2 41 1 34 13 -5 8 -2 9 9 5 10 -4 17 -1
17 5 0 6 3 8 7 5 3 -4 12 1 20 11 10 11 12 12 8 2 -3 -8 2 -5 11 8 9 12 23 22
30 22 8 0 14 5 14 12 0 6 3 8 7 5 3 -4 12 1 20 11 8 9 12 11 8 5 -4 -8 -1 -11
9 -7 9 3 14 10 13 16 -1 6 6 12 15 13 9 2 27 13 40 24 12 12 29 19 37 16 9 -3
12 -3 8 1 -4 4 12 19 35 32 24 14 46 30 50 36 4 6 12 12 18 12 5 1 13 2 16 3
4 0 0 9 -7 19 -10 13 -8 12 10 -3 l24 -20 -5 20 c-4 15 0 21 13 23 43 4 48 6
43 14 -5 7 10 12 29 9 5 -1 6 3 3 8 -4 5 3 12 14 16 11 3 20 11 20 16 0 6 4 8
8 5 4 -2 14 -1 22 4 12 7 12 11 0 27 -14 17 -14 17 6 1 19 -17 21 -17 36 1 9
11 13 23 10 27 -4 5 1 2 11 -5 15 -12 17 -11 17 3 0 10 5 14 10 11 6 -3 10 2
10 12 0 15 2 16 10 3 8 -12 10 -12 16 3 3 9 10 15 14 12 4 -3 11 2 14 11 3 8
10 12 16 9 6 -3 14 4 19 17 6 13 10 17 10 10 1 -7 6 -10 11 -7 6 4 8 11 5 16
-3 5 1 6 9 3 9 -3 16 -1 16 6 0 6 5 8 10 5 6 -3 10 -1 10 6 0 7 3 10 6 6 9 -8
33 16 26 27 -3 5 2 6 12 3 10 -4 19 -1 22 8 4 8 10 13 14 10 4 -3 11 2 14 11
3 8 10 12 16 9 6 -3 13 1 16 10 6 13 8 14 15 3 7 -10 9 -8 9 6 0 12 5 16 16
12 8 -3 13 -2 11 2 -6 9 13 26 33 30 8 2 20 10 26 17 6 8 15 11 19 7 5 -4 5 1
2 11 -6 15 -4 16 14 6 15 -8 19 -8 15 0 -4 6 -1 11 7 11 8 0 18 7 21 16 4 11
13 14 27 11 16 -4 18 -3 9 8 -10 11 -8 13 9 10 12 -2 21 0 21 6 0 5 3 8 8 8
19 -3 33 2 28 10 -3 5 2 8 12 7 9 0 16 4 15 11 -2 7 4 10 12 7 8 -4 15 -1 15
6 0 6 5 8 10 5 6 -3 10 -2 10 3 0 5 12 15 28 23 30 15 52 34 52 44 0 3 -5 3
-12 -1 -7 -4 -8 -3 -4 5 4 6 12 9 17 6 10 -7 16 -1 84 63 25 23 42 42 38 42
-4 0 3 7 15 16 12 8 22 22 22 30 0 8 4 13 8 10 5 -3 15 6 23 20 11 22 11 27
-1 34 -8 6 -10 10 -4 10 5 0 15 -5 21 -11 8 -8 13 -5 18 10 3 12 11 21 16 21
6 0 7 5 4 10 -3 6 -1 10 5 10 7 0 9 7 6 16 -3 9 -2 12 5 9 6 -4 13 2 16 14 3
12 9 21 14 21 5 0 9 5 9 11 0 5 -5 7 -12 3 -7 -4 -8 -3 -4 4 4 7 15 12 24 12
15 0 15 2 2 10 -14 9 -7 15 14 11 5 -1 6 5 3 14 -4 8 -2 15 3 15 6 0 10 7 10
16 0 8 4 13 9 10 5 -4 7 3 4 14 -3 12 0 20 7 20 7 0 10 7 6 15 -3 8 0 14 6 12
7 -1 13 3 13 8 1 6 5 19 9 30 9 22 18 47 21 55 1 3 8 19 14 37 14 36 14 49 -1
45 -5 -1 -6 2 -3 8 4 6 9 9 13 6 3 -3 11 2 18 12 10 14 10 20 -4 35 -15 17
-15 17 3 11 12 -5 16 -4 11 4 -3 6 -2 14 4 17 8 5 7 12 -2 23 -9 11 -9 13 -1
9 7 -5 17 1 23 14 7 12 8 19 2 15 -5 -3 -13 1 -16 10 -3 8 -2 13 3 10 5 -3 11
3 14 14 3 11 1 18 -4 14 -5 -3 -6 2 -3 10 3 9 11 13 16 10 6 -4 5 4 -2 16 -11
21 -10 22 6 16 18 -6 18 -5 0 9 -11 8 -14 15 -8 15 8 0 11 10 8 25 -3 13 0 27
5 30 5 4 9 11 9 16 0 6 -6 7 -12 3 -10 -6 -10 -4 0 8 10 13 10 17 0 21 -10 4
-10 6 0 6 6 1 12 6 12 12 0 5 -6 7 -12 3 -10 -6 -10 -5 -1 7 10 12 10 18 0 29
-8 9 -9 11 0 6 6 -3 14 -2 18 4 3 5 -2 10 -12 11 -10 0 -13 3 -5 6 16 6 16 35
-1 52 -10 10 -8 11 8 6 17 -6 16 -3 -5 14 -16 14 -19 19 -7 15 12 -4 17 -1 17
11 0 10 -4 13 -12 9 -9 -5 -9 -2 1 9 10 13 10 17 1 17 -10 0 -10 3 0 15 10 12
10 15 0 15 -10 0 -10 3 -1 14 9 11 9 15 -1 19 -9 4 -9 6 2 7 10 0 6 6 -10 16
-14 8 -18 13 -9 11 12 -4 14 2 11 27 -3 17 -9 36 -14 43 -6 7 -5 14 3 19 8 5
4 11 -12 21 -13 8 -17 12 -7 9 14 -4 15 0 8 24 -4 16 -6 31 -2 34 3 3 -3 6
-14 7 -10 0 -14 3 -8 5 14 6 6 54 -9 54 -6 0 -7 3 -4 7 4 3 1 13 -6 21 -9 13
-9 14 0 8 9 -5 11 -2 7 8 -3 9 -11 13 -17 9 -5 -3 -7 -1 -3 5 3 6 1 23 -6 39
-6 15 -11 31 -10 36 1 4 -2 7 -7 7 -6 0 -8 9 -6 19 2 11 -3 22 -11 25 -9 3
-12 11 -8 17 4 8 3 9 -4 5 -8 -5 -12 1 -12 17 0 13 -8 32 -18 43 -21 22 -21
22 -28 52 -4 12 -9 22 -13 22 -3 0 -12 9 -19 21 -11 17 -11 20 0 13 10 -6 10
-4 -1 9 -7 9 -20 17 -28 17 -8 0 -12 4 -8 9 3 5 -6 21 -21 36 -14 14 -27 34
-28 43 -2 9 -14 23 -27 29 -13 7 -20 13 -16 13 4 0 -7 15 -26 34 -18 18 -64
78 -102 132 -38 55 -112 142 -165 194 -103 101 -107 104 -560 386 -314 196
-366 229 -445 280 -27 17 -295 186 -595 374 -300 188 -789 496 -1087 684 -299
187 -561 352 -583 366 -23 14 -168 105 -323 202 -265 166 -351 213 -472 259
-73 27 -163 49 -225 55 -30 3 -60 7 -67 9 -6 2 -13 2 -15 0z m-434 -2665 c-6
-6 -10 -3 -10 10 0 13 4 16 10 10 7 -7 7 -13 0 -20z m216 -226 c0 -8 -19 -13
-24 -6 -3 5 1 9 9 9 8 0 15 -2 15 -3z m150 -29 c0 -5 -5 -3 -10 5 -5 8 -10 20
-10 25 0 6 5 3 10 -5 5 -8 10 -19 10 -25z m153 -70 c-3 -9 -8 -14 -10 -11 -3
3 -2 9 2 15 9 16 15 13 8 -4z m22 -73 c-3 -3 -11 0 -18 7 -9 10 -8 11 6 5 10
-3 15 -9 12 -12z m4662 -87 c0 -8 -4 -12 -9 -9 -5 3 -6 10 -3 15 9 13 12 11
12 -6z m40 -50 c0 -8 -4 -12 -9 -9 -5 3 -6 10 -3 15 9 13 12 11 12 -6z m-7
-55 c8 -5 11 -10 5 -10 -5 0 -17 5 -25 10 -8 5 -10 10 -5 10 6 0 17 -5 25 -10z
m-4319 -33 c-10 -9 -11 -8 -5 6 3 10 9 15 12 12 3 -3 0 -11 -7 -18z m87 -17
c-7 -10 -14 -17 -17 -15 -4 4 18 35 25 35 2 0 -1 -9 -8 -20z m4262 -64 c0 -2
-7 -7 -16 -10 -8 -3 -12 -2 -9 4 6 10 25 14 25 6z m60 0 c0 -2 -7 -7 -16 -10
-8 -3 -12 -2 -9 4 6 10 25 14 25 6z m-80 -66 c0 -5 -5 -10 -11 -10 -5 0 -7 5
-4 10 3 6 8 10 11 10 2 0 4 -4 4 -10z m-3960 -120 c0 -5 -2 -10 -4 -10 -3 0
-8 5 -11 10 -3 6 -1 10 4 10 6 0 11 -4 11 -10z m270 -100 c8 -5 11 -10 5 -10
-5 0 -17 5 -25 10 -8 5 -10 10 -5 10 6 0 17 -5 25 -10z m3780 0 c8 -5 11 -10
5 -10 -5 0 -17 5 -25 10 -8 5 -10 10 -5 10 6 0 17 -5 25 -10z m-59 -213 c-10
-9 -11 -8 -5 6 3 10 9 15 12 12 3 -3 0 -11 -7 -18z m42 -82 c-3 -9 -8 -14 -10
-11 -3 3 -2 9 2 15 9 16 15 13 8 -4z m-58 -65 c3 -5 1 -10 -4 -10 -6 0 -11 5
-11 10 0 6 2 10 4 10 3 0 8 -4 11 -10z m165 6 c0 -2 -7 -7 -16 -10 -8 -3 -12
-2 -9 4 6 10 25 14 25 6z m-160 -80 c0 -3 -4 -8 -10 -11 -5 -3 -10 -1 -10 4 0
6 5 11 10 11 6 0 10 -2 10 -4z m54 -72 c3 -8 2 -12 -4 -9 -6 3 -10 10 -10 16
0 14 7 11 14 -7z m-77 -29 c0 -8 -4 -12 -9 -9 -5 3 -6 10 -3 15 9 13 12 11 12
-6z m74 -58 c-10 -9 -11 -8 -5 6 3 10 9 15 12 12 3 -3 0 -11 -7 -18z m-110
-44 c13 -16 12 -17 -3 -4 -10 7 -18 15 -18 17 0 8 8 3 21 -13z m79 1 c0 -8
-19 -13 -24 -6 -3 5 1 9 9 9 8 0 15 -2 15 -3z m135 -4 c3 -5 1 -10 -4 -10 -6
0 -11 5 -11 10 0 6 2 10 4 10 3 0 8 -4 11 -10z m-304 -33 c-10 -9 -11 -8 -5 6
3 10 9 15 12 12 3 -3 0 -11 -7 -18z m167 -17 c-7 -10 -14 -17 -17 -15 -4 4 18
35 25 35 2 0 -1 -9 -8 -20z m-98 -66 c0 -8 -19 -13 -24 -6 -3 5 1 9 9 9 8 0
15 -2 15 -3z m-66 -42 c3 -5 -1 -9 -9 -9 -8 0 -12 4 -9 9 3 4 7 8 9 8 2 0 6
-4 9 -8z m60 0 c3 -5 -1 -9 -9 -9 -8 0 -12 4 -9 9 3 4 7 8 9 8 2 0 6 -4 9 -8z
m56 -2 c8 -5 11 -10 5 -10 -5 0 -17 5 -25 10 -8 5 -10 10 -5 10 6 0 17 -5 25
-10z m-152 -65 c-3 -3 -9 2 -12 12 -6 14 -5 15 5 6 7 -7 10 -15 7 -18z m259
10 c0 -8 -4 -12 -9 -9 -5 3 -6 10 -3 15 9 13 12 11 12 -6z m-162 -73 c-3 -3
-11 0 -18 7 -9 10 -8 11 6 5 10 -3 15 -9 12 -12z m-178 -7 c0 -8 -4 -12 -9 -9
-5 3 -6 10 -3 15 9 13 12 11 12 -6z m-57 -59 c0 -2 -7 -7 -16 -10 -8 -3 -12
-2 -9 4 6 10 25 14 25 6z m54 -72 c3 -8 2 -12 -4 -9 -6 3 -10 10 -10 16 0 14
7 11 14 -7z m199 -69 c-3 -9 -8 -14 -10 -11 -3 3 -2 9 2 15 9 16 15 13 8 -4z
m-373 -25 c0 -5 -5 -10 -11 -10 -5 0 -7 5 -4 10 3 6 8 10 11 10 2 0 4 -4 4
-10z m240 0 c0 -5 -5 -10 -11 -10 -5 0 -7 5 -4 10 3 6 8 10 11 10 2 0 4 -4 4
-10z m-120 -74 c0 -3 -4 -8 -10 -11 -5 -3 -10 -1 -10 4 0 6 5 11 10 11 6 0 10
-2 10 -4z m54 -72 c3 -8 2 -12 -4 -9 -6 3 -10 10 -10 16 0 14 7 11 14 -7z
m-161 -29 c-3 -9 -8 -14 -10 -11 -3 3 -2 9 2 15 9 16 15 13 8 -4z m84 0 c0 -8
-4 -12 -9 -9 -5 3 -6 10 -3 15 9 13 12 11 12 -6z m-117 -45 c0 -5 -5 -10 -11
-10 -5 0 -7 5 -4 10 3 6 8 10 11 10 2 0 4 -4 4 -10z m-265 -20 c3 -5 1 -10 -4
-10 -6 0 -11 5 -11 10 0 6 2 10 4 10 3 0 8 -4 11 -10z m80 -8 c-3 -3 -11 0
-18 7 -9 10 -8 11 6 5 10 -3 15 -9 12 -12z m385 14 c0 -3 -4 -8 -10 -11 -5 -3
-10 -1 -10 4 0 6 5 11 10 11 6 0 10 -2 10 -4z m-560 -20 c0 -3 -4 -8 -10 -11
-5 -3 -10 -1 -10 4 0 6 5 11 10 11 6 0 10 -2 10 -4z m364 -24 c3 -5 -1 -9 -9
-9 -8 0 -12 4 -9 9 3 4 7 8 9 8 2 0 6 -4 9 -8z m-124 -22 c0 -5 -5 -10 -11
-10 -5 0 -7 5 -4 10 3 6 8 10 11 10 2 0 4 -4 4 -10z m-420 -20 c0 -5 -2 -10
-4 -10 -3 0 -8 5 -11 10 -3 6 -1 10 4 10 6 0 11 -4 11 -10z m245 0 c3 -6 -1
-7 -9 -4 -18 7 -21 14 -7 14 6 0 13 -4 16 -10z m75 0 c0 -5 -2 -10 -4 -10 -3
0 -8 5 -11 10 -3 6 -1 10 4 10 6 0 11 -4 11 -10z m173 -15 c-3 -9 -8 -14 -10
-11 -3 3 -2 9 2 15 9 16 15 13 8 -4z m-353 -70 c0 -5 -5 -3 -10 5 -5 8 -10 20
-10 25 0 6 5 3 10 -5 5 -8 10 -19 10 -25z m275 26 c3 -5 2 -12 -3 -15 -5 -3
-9 1 -9 9 0 17 3 19 12 6z m42 -6 c0 -8 -4 -12 -9 -9 -5 3 -6 10 -3 15 9 13
12 11 12 -6z m-127 -90 c-7 -8 -17 -15 -23 -15 -6 0 -2 7 9 15 25 19 30 19 14
0z m-210 1 c0 -2 -7 -7 -16 -10 -8 -3 -12 -2 -9 4 6 10 25 14 25 6z m-423 -41
c0 -8 -4 -12 -9 -9 -5 3 -6 10 -3 15 9 13 12 11 12 -6z m164 -2 c13 -16 12
-17 -3 -4 -10 7 -18 15 -18 17 0 8 8 3 21 -13z m64 -3 c3 -6 -1 -7 -9 -4 -18
7 -21 14 -7 14 6 0 13 -4 16 -10z m90 -19 c3 -5 2 -12 -3 -15 -5 -3 -9 1 -9 9
0 17 3 19 12 6z m42 -6 c0 -8 -4 -12 -9 -9 -5 3 -6 10 -3 15 9 13 12 11 12 -6z
m-443 -13 c3 -5 -1 -9 -9 -9 -8 0 -12 4 -9 9 3 4 7 8 9 8 2 0 6 -4 9 -8z m186
4 c0 -2 -7 -7 -16 -10 -8 -3 -12 -2 -9 4 6 10 25 14 25 6z m75 -14 c-3 -3 -11
0 -18 7 -9 10 -8 11 6 5 10 -3 15 -9 12 -12z m325 14 c0 -2 -7 -7 -16 -10 -8
-3 -12 -2 -9 4 6 10 25 14 25 6z m-520 -46 c0 -5 -5 -10 -11 -10 -5 0 -7 5 -4
10 3 6 8 10 11 10 2 0 4 -4 4 -10z m57 -5 c0 -8 -4 -12 -9 -9 -5 3 -6 10 -3
15 9 13 12 11 12 -6z m323 5 c0 -5 -5 -10 -11 -10 -5 0 -7 5 -4 10 3 6 8 10
11 10 2 0 4 -4 4 -10z m-123 -25 c0 -8 -4 -12 -9 -9 -5 3 -6 10 -3 15 9 13 12
11 12 -6z m-97 -15 c0 -5 -2 -10 -4 -10 -3 0 -8 5 -11 10 -3 6 -1 10 4 10 6 0
11 -4 11 -10z m-302 -25 c-3 -3 -9 2 -12 12 -6 14 -5 15 5 6 7 -7 10 -15 7
-18z m475 10 c-3 -9 -8 -14 -10 -11 -3 3 -2 9 2 15 9 16 15 13 8 -4z m57 -5
c8 -5 11 -10 5 -10 -5 0 -17 5 -25 10 -8 5 -10 10 -5 10 6 0 17 -5 25 -10z
m-335 -9 c3 -5 2 -12 -3 -15 -5 -3 -9 1 -9 9 0 17 3 19 12 6z m-105 -11 c-8
-5 -19 -10 -25 -10 -5 0 -3 5 5 10 8 5 20 10 25 10 6 0 3 -5 -5 -10z m225 -20
c3 -5 1 -10 -4 -10 -6 0 -11 5 -11 10 0 6 2 10 4 10 3 0 8 -4 11 -10z m-117
-25 c-3 -3 -9 2 -12 12 -6 14 -5 15 5 6 7 -7 10 -15 7 -18z m-318 5 c0 -5 -2
-10 -4 -10 -3 0 -8 5 -11 10 -3 6 -1 10 4 10 6 0 11 -4 11 -10z m113 -15 c-3
-9 -8 -14 -10 -11 -3 3 -2 9 2 15 9 16 15 13 8 -4z m-188 -25 c-3 -5 -12 -10
-18 -10 -7 0 -6 4 3 10 19 12 23 12 15 0z m-60 -40 c-3 -5 -12 -10 -18 -10 -7
0 -6 4 3 10 19 12 23 12 15 0z m325 4 c0 -8 -19 -13 -24 -6 -3 5 1 9 9 9 8 0
15 -2 15 -3z m-270 -24 c0 -5 -5 -10 -11 -10 -5 0 -7 5 -4 10 3 6 8 10 11 10
2 0 4 -4 4 -10z m355 -49 c3 -5 2 -12 -3 -15 -5 -3 -9 1 -9 9 0 17 3 19 12 6z
m-540 -19 c-3 -3 -11 0 -18 7 -9 10 -8 11 6 5 10 -3 15 -9 12 -12z m185 8 c0
-5 -2 -10 -4 -10 -3 0 -8 5 -11 10 -3 6 -1 10 4 10 6 0 11 -4 11 -10z m198
-25 c-3 -3 -9 2 -12 12 -6 14 -5 15 5 6 7 -7 10 -15 7 -18z m82 11 c0 -3 -4
-8 -10 -11 -5 -3 -10 -1 -10 4 0 6 5 11 10 11 6 0 10 -2 10 -4z m-400 -20 c0
-2 -7 -7 -16 -10 -8 -3 -12 -2 -9 4 6 10 25 14 25 6z m117 -21 c0 -8 -4 -12
-9 -9 -5 3 -6 10 -3 15 9 13 12 11 12 -6z m157 -11 c3 -8 2 -12 -4 -9 -6 3
-10 10 -10 16 0 14 7 11 14 -7z m-395 -38 c-3 -3 -11 5 -18 17 -13 21 -12 21
5 5 10 -10 16 -20 13 -22z m512 17 c12 -16 12 -17 -2 -6 -9 7 -20 9 -24 5 -5
-4 -5 -1 -1 6 9 16 11 15 27 -5z m-726 -73 c-3 -5 -12 -10 -18 -10 -7 0 -6 4
3 10 19 12 23 12 15 0z m235 0 c0 -5 -5 -10 -11 -10 -5 0 -7 5 -4 10 3 6 8 10
11 10 2 0 4 -4 4 -10z m245 0 c3 -6 -1 -7 -9 -4 -18 7 -21 14 -7 14 6 0 13 -4
16 -10z m-148 -15 c0 -8 -4 -12 -9 -9 -5 3 -6 10 -3 15 9 13 12 11 12 -6z
m-163 -51 c3 -8 2 -12 -4 -9 -6 3 -10 10 -10 16 0 14 7 11 14 -7z m-299 -22
c-3 -3 -11 0 -18 7 -9 10 -8 11 6 5 10 -3 15 -9 12 -12z m80 0 c-3 -3 -11 0
-18 7 -9 10 -8 11 6 5 10 -3 15 -9 12 -12z m450 8 c-3 -5 -12 -10 -18 -10 -7
0 -6 4 3 10 19 12 23 12 15 0z m-114 -57 c-12 -20 -14 -14 -5 12 4 9 9 14 11
11 3 -2 0 -13 -6 -23z m-497 -21 c3 -5 -1 -9 -9 -9 -8 0 -12 4 -9 9 3 4 7 8 9
8 2 0 6 -4 9 -8z m86 4 c0 -3 -4 -8 -10 -11 -5 -3 -10 -1 -10 4 0 6 5 11 10
11 6 0 10 -2 10 -4z m411 -39 c-10 -9 -11 -8 -5 6 3 10 9 15 12 12 3 -3 0 -11
-7 -18z m-357 -33 c3 -8 2 -12 -4 -9 -6 3 -10 10 -10 16 0 14 7 11 14 -7z
m279 -9 c-3 -9 -8 -14 -10 -11 -3 3 -2 9 2 15 9 16 15 13 8 -4z m-520 -20 c-3
-9 -8 -14 -10 -11 -3 3 -2 9 2 15 9 16 15 13 8 -4z m167 -5 c0 -5 -2 -10 -4
-10 -3 0 -8 5 -11 10 -3 6 -1 10 4 10 6 0 11 -4 11 -10z m155 -9 c3 -5 2 -12
-3 -15 -5 -3 -9 1 -9 9 0 17 3 19 12 6z m70 -11 c3 -6 -1 -7 -9 -4 -18 7 -21
14 -7 14 6 0 13 -4 16 -10z m-470 -20 c3 -5 1 -10 -4 -10 -6 0 -11 5 -11 10 0
6 2 10 4 10 3 0 8 -4 11 -10z m156 -13 c-10 -9 -11 -8 -5 6 3 10 9 15 12 12 3
-3 0 -11 -7 -18z m184 -15 c-3 -3 -11 0 -18 7 -9 10 -8 11 6 5 10 -3 15 -9 12
-12z m-417 -17 c-3 -3 -9 2 -12 12 -6 14 -5 15 5 6 7 -7 10 -15 7 -18z m-68
-15 c8 -5 11 -10 5 -10 -5 0 -17 5 -25 10 -8 5 -10 10 -5 10 6 0 17 -5 25 -10z
m194 2 c3 -5 -1 -9 -9 -9 -8 0 -12 4 -9 9 3 4 7 8 9 8 2 0 6 -4 9 -8z m76 2
c0 -8 -19 -13 -24 -6 -3 5 1 9 9 9 8 0 15 -2 15 -3z m270 0 c0 -8 -19 -13 -24
-6 -3 5 1 9 9 9 8 0 15 -2 15 -3z m-410 -44 c0 -5 -5 -10 -11 -10 -5 0 -7 5
-4 10 3 6 8 10 11 10 2 0 4 -4 4 -10z m138 -10 c-7 -10 -14 -17 -17 -15 -4 4
18 35 25 35 2 0 -1 -9 -8 -20z m-447 -63 c-10 -9 -11 -8 -5 6 3 10 9 15 12 12
3 -3 0 -11 -7 -18z m120 -4 c-12 -20 -14 -14 -5 12 4 9 9 14 11 11 3 -2 0 -13
-6 -23z m327 -8 c-3 -3 -9 2 -12 12 -6 14 -5 15 5 6 7 -7 10 -15 7 -18z m-480
-85 c-7 -10 -14 -17 -17 -15 -4 4 18 35 25 35 2 0 -1 -9 -8 -20z m355 -5 c-3
-9 -8 -14 -10 -11 -3 3 -2 9 2 15 9 16 15 13 8 -4z m-83 -25 c8 -5 11 -10 5
-10 -5 0 -17 5 -25 10 -8 5 -10 10 -5 10 6 0 17 -5 25 -10z m-455 -48 c-3 -3
-11 0 -18 7 -9 10 -8 11 6 5 10 -3 15 -9 12 -12z m240 0 c-3 -3 -11 0 -18 7
-9 10 -8 11 6 5 10 -3 15 -9 12 -12z m-178 -57 c0 -8 -4 -12 -9 -9 -5 3 -6 10
-3 15 9 13 12 11 12 -6z m-172 -15 c-3 -5 -12 -10 -18 -10 -7 0 -6 4 3 10 19
12 23 12 15 0z m80 0 c3 -6 -1 -7 -9 -4 -18 7 -21 14 -7 14 6 0 13 -4 16 -10z
m319 2 c3 -5 -1 -9 -9 -9 -8 0 -12 4 -9 9 3 4 7 8 9 8 2 0 6 -4 9 -8z m-233
-75 c-10 -9 -11 -8 -5 6 3 10 9 15 12 12 3 -3 0 -11 -7 -18z m-431 -27 c0 -5
-5 -10 -11 -10 -5 0 -7 5 -4 10 3 6 8 10 11 10 2 0 4 -4 4 -10z m400 -16 c0
-8 -19 -13 -24 -6 -3 5 1 9 9 9 8 0 15 -2 15 -3z m-409 -57 c-10 -9 -11 -8 -5
6 3 10 9 15 12 12 3 -3 0 -11 -7 -18z m-73 -12 c-3 -3 -9 2 -12 12 -6 14 -5
15 5 6 7 -7 10 -15 7 -18z m355 10 c-3 -9 -8 -14 -10 -11 -3 3 -2 9 2 15 9 16
15 13 8 -4z m127 1 c0 -3 -4 -8 -10 -11 -5 -3 -10 -1 -10 4 0 6 5 11 10 11 6
0 10 -2 10 -4z m-220 -20 c0 -3 -4 -8 -10 -11 -5 -3 -10 -1 -10 4 0 6 5 11 10
11 6 0 10 -2 10 -4z m254 -32 c3 -8 2 -12 -4 -9 -6 3 -10 10 -10 16 0 14 7 11
14 -7z m-409 -14 c-3 -5 -12 -10 -18 -10 -7 0 -6 4 3 10 19 12 23 12 15 0z
m269 2 c3 -5 -1 -9 -9 -9 -8 0 -12 4 -9 9 3 4 7 8 9 8 2 0 6 -4 9 -8z m-101
-17 c-3 -9 -8 -14 -10 -11 -3 3 -2 9 2 15 9 16 15 13 8 -4z m-276 -20 c0 -8
-4 -12 -9 -9 -5 3 -6 10 -3 15 9 13 12 11 12 -6z m-47 -1 c0 -8 -19 -13 -24
-6 -3 5 1 9 9 9 8 0 15 -2 15 -3z m-6 -42 c3 -5 -1 -9 -9 -9 -8 0 -12 4 -9 9
3 4 7 8 9 8 2 0 6 -4 9 -8z m111 -10 c-3 -3 -11 0 -18 7 -9 10 -8 11 6 5 10
-3 15 -9 12 -12z m-338 -7 c0 -8 -4 -12 -9 -9 -5 3 -6 10 -3 15 9 13 12 11 12
-6z m-42 -24 c3 -5 2 -12 -3 -15 -5 -3 -9 1 -9 9 0 17 3 19 12 6z m125 -21 c0
-5 -5 -10 -11 -10 -5 0 -7 5 -4 10 3 6 8 10 11 10 2 0 4 -4 4 -10z m73 -35
c-3 -9 -8 -14 -10 -11 -3 3 -2 9 2 15 9 16 15 13 8 -4z m342 -5 c3 -5 1 -10
-4 -10 -6 0 -11 5 -11 10 0 6 2 10 4 10 3 0 8 -4 11 -10z m-538 -15 c0 -8 -4
-12 -9 -9 -5 3 -6 10 -3 15 9 13 12 11 12 -6z m-46 -12 c13 -17 13 -17 -6 -3
-11 8 -22 16 -24 17 -2 2 0 3 6 3 6 0 17 -8 24 -17z m320 -26 c-10 -9 -11 -8
-5 6 3 10 9 15 12 12 3 -3 0 -11 -7 -18z m-216 -15 c-3 -3 -11 0 -18 7 -9 10
-8 11 6 5 10 -3 15 -9 12 -12z m80 8 c3 -5 1 -10 -4 -10 -6 0 -11 5 -11 10 0
6 2 10 4 10 3 0 8 -4 11 -10z m218 -15 c-3 -9 -8 -14 -10 -11 -3 3 -2 9 2 15
9 16 15 13 8 -4z m-516 -30 c0 -8 -4 -12 -9 -9 -5 3 -6 10 -3 15 9 13 12 11
12 -6z m-103 -33 c3 -5 -1 -9 -9 -9 -8 0 -12 4 -9 9 3 4 7 8 9 8 2 0 6 -4 9
-8z m246 4 c0 -3 -4 -8 -10 -11 -5 -3 -10 -1 -10 4 0 6 5 11 10 11 6 0 10 -2
10 -4z m98 -31 c-3 -3 -9 2 -12 12 -6 14 -5 15 5 6 7 -7 10 -15 7 -18z m239
10 c0 -8 -4 -12 -9 -9 -5 3 -6 10 -3 15 9 13 12 11 12 -6z m-82 -4 c3 -5 2
-12 -3 -15 -5 -3 -9 1 -9 9 0 17 3 19 12 6z m-400 -10 c3 -5 2 -12 -3 -15 -5
-3 -9 1 -9 9 0 17 3 19 12 6z m65 -5 c0 -3 -4 -8 -10 -11 -5 -3 -10 -1 -10 4
0 6 5 11 10 11 6 0 10 -2 10 -4z m134 -32 c3 -8 2 -12 -4 -9 -6 3 -10 10 -10
16 0 14 7 11 14 -7z m47 -11 c13 -16 12 -17 -3 -4 -17 13 -22 21 -14 21 2 0
10 -8 17 -17z m-296 -3 c-3 -5 -12 -10 -18 -10 -7 0 -6 4 3 10 19 12 23 12 15
0z m-152 -15 c-3 -9 -8 -14 -10 -11 -3 3 -2 9 2 15 9 16 15 13 8 -4z m327 -5
c0 -5 -2 -10 -4 -10 -3 0 -8 5 -11 10 -3 6 -1 10 4 10 6 0 11 -4 11 -10z m71
-57 c-12 -20 -14 -14 -5 12 4 9 9 14 11 11 3 -2 0 -13 -6 -23z m-513 -8 c-3
-3 -9 2 -12 12 -6 14 -5 15 5 6 7 -7 10 -15 7 -18z m216 7 c3 -5 -1 -9 -9 -9
-8 0 -12 4 -9 9 3 4 7 8 9 8 2 0 6 -4 9 -8z m-94 -16 c0 -3 -4 -8 -10 -11 -5
-3 -10 -1 -10 4 0 6 5 11 10 11 6 0 10 -2 10 -4z m280 -26 c0 -5 -2 -10 -4
-10 -3 0 -8 5 -11 10 -3 6 -1 10 4 10 6 0 11 -4 11 -10z m-1204 -56 c1 -9 0
-13 -4 -10 -3 4 -7 14 -8 22 -1 9 0 13 4 10 3 -4 7 -14 8 -22z m724 -9 c0 -5
-5 -3 -10 5 -5 8 -10 20 -10 25 0 6 5 3 10 -5 5 -8 10 -19 10 -25z m265 25 c3
-6 -1 -7 -9 -4 -18 7 -21 14 -7 14 6 0 13 -4 16 -10z m209 -6 c3 -8 2 -12 -4
-9 -6 3 -10 10 -10 16 0 14 7 11 14 -7z m-1239 -3 c3 -5 2 -12 -3 -15 -5 -3
-9 1 -9 9 0 17 3 19 12 6z m-75 -11 c0 -5 -2 -10 -4 -10 -3 0 -8 5 -11 10 -3
6 -1 10 4 10 6 0 11 -4 11 -10z m460 -14 c0 -3 -4 -8 -10 -11 -5 -3 -10 -1
-10 4 0 6 5 11 10 11 6 0 10 -2 10 -4z m45 -6 c-3 -5 -12 -10 -18 -10 -7 0 -6
4 3 10 19 12 23 12 15 0z m230 -8 c-3 -3 -11 0 -18 7 -9 10 -8 11 6 5 10 -3
15 -9 12 -12z m-620 -11 c3 -5 2 -12 -3 -15 -5 -3 -9 1 -9 9 0 17 3 19 12 6z
m42 -6 c0 -8 -4 -12 -9 -9 -5 3 -6 10 -3 15 9 13 12 11 12 -6z m120 0 c0 -8
-4 -12 -9 -9 -5 3 -6 10 -3 15 9 13 12 11 12 -6z m114 -8 c-10 -9 -11 -8 -5 6
3 10 9 15 12 12 3 -3 0 -11 -7 -18z m563 7 c3 -8 2 -12 -4 -9 -6 3 -10 10 -10
16 0 14 7 11 14 -7z m121 7 c3 -5 2 -12 -3 -15 -5 -3 -9 1 -9 9 0 17 3 19 12
6z m42 -6 c0 -8 -4 -12 -9 -9 -5 3 -6 10 -3 15 9 13 12 11 12 -6z m79 -11 c1
-9 0 -13 -4 -10 -3 4 -7 14 -8 22 -1 9 0 13 4 10 3 -4 7 -14 8 -22z m-916 -44
c0 -5 -5 -10 -11 -10 -5 0 -7 5 -4 10 3 6 8 10 11 10 2 0 4 -4 4 -10z m-40
-55 c0 -7 -30 -13 -34 -7 -3 4 4 9 15 9 10 1 19 0 19 -2z m40 -5 c0 -5 -2 -10
-4 -10 -3 0 -8 5 -11 10 -3 6 -1 10 4 10 6 0 11 -4 11 -10z m345 -20 c3 -6 -1
-7 -9 -4 -18 7 -21 14 -7 14 6 0 13 -4 16 -10z m115 6 c0 -2 -7 -7 -16 -10 -8
-3 -12 -2 -9 4 6 10 25 14 25 6z m-430 -22 c0 -8 -19 -13 -24 -6 -3 5 1 9 9 9
8 0 15 -2 15 -3z m265 -32 c-3 -3 -11 0 -18 7 -9 10 -8 11 6 5 10 -3 15 -9 12
-12z m210 8 c-3 -5 -12 -10 -18 -10 -7 0 -6 4 3 10 19 12 23 12 15 0z m80 0
c3 -6 -1 -7 -9 -4 -18 7 -21 14 -7 14 6 0 13 -4 16 -10z m-441 -18 c3 -5 -1
-9 -9 -9 -8 0 -12 4 -9 9 3 4 7 8 9 8 2 0 6 -4 9 -8z m256 -16 c0 -2 -7 -7
-16 -10 -8 -3 -12 -2 -9 4 6 10 25 14 25 6z"/>
<path d="M4145 2530 c-3 -5 -1 -10 4 -10 6 0 11 5 11 10 0 6 -2 10 -4 10 -3 0
-8 -4 -11 -10z"/>
</g>
</svg>
